<svg xmlns="http://www.w3.org/2000/svg" viewBox="0 0 53.38 53.38"><defs><style>.cls-1{fill:#1d1d1b;}.cls-2{fill:#fff;}</style></defs><g id="Layer_2" data-name="Layer 2"><g id="Capa_1" data-name="Capa 1"><circle class="cls-1" cx="26.69" cy="26.69" r="26.69"/><path class="cls-2" d="M15.66,21.42l.12,1.39a4.06,4.06,0,0,1,3.37-1.6,3,3,0,0,1,3,1.77,3.91,3.91,0,0,1,3.46-1.77c2.39,0,3.61,1.44,3.68,4.33v7.67H25.63V25.77a2.21,2.21,0,0,0-.31-1.32A1.3,1.3,0,0,0,24.21,24a1.74,1.74,0,0,0-1.62,1v8.2H18.92V25.79a2.42,2.42,0,0,0-.29-1.34A1.32,1.32,0,0,0,17.5,24a1.76,1.76,0,0,0-1.61,1v8.2H12.22V21.42Z"/><path class="cls-2" d="M38,33.21a4.12,4.12,0,0,1-.34-1.06,3.43,3.43,0,0,1-2.84,1.28,4.19,4.19,0,0,1-2.83-1,3.23,3.23,0,0,1-1.16-2.53A3.3,3.3,0,0,1,32.28,27a7.27,7.27,0,0,1,4.12-1h1.13v-.63c0-1.08-.47-1.63-1.4-1.63a1.16,1.16,0,0,0-1.31,1.3H31.15a3.29,3.29,0,0,1,1.45-2.78,6.13,6.13,0,0,1,3.71-1.06,5.3,5.3,0,0,1,3.56,1.1,3.78,3.78,0,0,1,1.34,3v5.22a5.52,5.52,0,0,0,.5,2.48v.19ZM36.66,16.48h3.88l-3,3.42h-3Zm-.91,14.33a2.08,2.08,0,0,0,1.13-.29,1.79,1.79,0,0,0,.65-.67V28H36.47c-1.28,0-1.92.57-1.92,1.72a1,1,0,0,0,.34.81A1.2,1.2,0,0,0,35.75,30.81Z"/></g></g></svg>