<svg xmlns="http://www.w3.org/2000/svg" viewBox="0 0 388.21 140.63"><defs><style>.cls-1{fill:#1d1d1b;}</style></defs><g id="Layer_2" data-name="Layer 2"><g id="Capa_1" data-name="Capa 1"><path class="cls-1" d="M22.31,30.64l.74,8.58q7.75-9.93,20.85-9.93,13.85,0,18.7,11,7.42-11,21.47-11,22.2,0,22.81,26.87v47.52H84.07V57.57q0-5.59-1.89-8.16t-6.89-2.57a10.78,10.78,0,0,0-10.06,6l.07.94v49.89H42.49v-46q0-5.73-1.82-8.3t-7-2.57q-6.54,0-10,6v50.83H1v-73Z"/><path class="cls-1" d="M161,103.68a25.78,25.78,0,0,1-2.16-6.55Q152.58,105,141.3,105a25.94,25.94,0,0,1-17.55-6.24,19.88,19.88,0,0,1-7.22-15.69q0-11.88,8.78-18t25.51-6.08h7V55.19q0-10.09-8.71-10.1-8.1,0-8.1,8H118.29q0-10.58,9-17.19t23-6.61q14,0,22.07,6.82t8.3,18.7V87.14q.14,10,3.11,15.39v1.15ZM146.77,88.83a12.61,12.61,0,0,0,7-1.83,11.36,11.36,0,0,0,4-4.11V71.21h-6.61q-11.88,0-11.88,10.66a6.49,6.49,0,0,0,2.09,5A7.57,7.57,0,0,0,146.77,88.83Z"/><path class="cls-1" d="M190.37,66.62q0-17.36,7.5-27.34t20.92-10A21,21,0,0,1,235.26,37V0h22.81V103.68H237.62l-1.14-7.83q-7,9.18-17.82,9.17-13,0-20.66-10T190.37,66.62ZM213.12,68q0,19.44,11.34,19.44,7.56,0,10.8-6.35V53.32q-3.1-6.48-10.66-6.48-10.53,0-11.41,17Z"/><path class="cls-1" d="M315.18,51.23l-7.49-.54q-10.74,0-13.77,6.75v46.24H271.17v-73H292.5l.74,9.39q5.75-10.74,16-10.74a22.15,22.15,0,0,1,6.34.81Z"/><path class="cls-1" d="M357.43,105q-16.8,0-27.2-10T319.84,68.91V67A44.81,44.81,0,0,1,324,47.25,30.32,30.32,0,0,1,336.1,34,36.65,36.65,0,0,1,355,29.29q15.39,0,24.3,9.56t8.91,26.62v8.84H343A16.32,16.32,0,0,0,348.32,84,15.85,15.85,0,0,0,359,87.48q10.8,0,16.88-7.56L386.25,92.2a29,29,0,0,1-12.05,9.35A40.65,40.65,0,0,1,357.43,105Zm-2.56-58.18q-10,0-11.88,13.23h22.95V58.32q.12-5.48-2.77-8.47T354.87,46.84Z"/><path class="cls-1" d="M2.5,140.63H0L6.25,122.2h2.5Z"/><path class="cls-1" d="M25.74,125h-5.2v14.13H17.05V125H11.92V122.2H25.74Z"/><path class="cls-1" d="M38.3,135.68H32.17L31,139.17H27.28l6.32-17h3.24l6.35,17H39.47Zm-5.19-2.84h4.24l-2.13-6.35Z"/><path class="cls-1" d="M50.66,136.36h7.42v2.81H47.16v-17h3.5Z"/><path class="cls-1" d="M66,136.36h7.42v2.81H62.47v-17H66Z"/><path class="cls-1" d="M88,131.82H81.28v4.54h7.87v2.81H77.78v-17H89.13V125H81.28v4H88Z"/><path class="cls-1" d="M99.87,133H97.08v6.21H93.59v-17h6.3a7.09,7.09,0,0,1,4.64,1.35,4.6,4.6,0,0,1,1.63,3.78,5.25,5.25,0,0,1-.75,2.9,5.07,5.07,0,0,1-2.28,1.84L106.8,139v.16h-3.75Zm-2.79-2.83H99.9a2.87,2.87,0,0,0,2-.67,2.37,2.37,0,0,0,.73-1.85,2.55,2.55,0,0,0-.69-1.89,2.81,2.81,0,0,0-2.09-.68H97.08Z"/><path class="cls-1" d="M119.53,139.17v-17h5.22a8,8,0,0,1,4,1,7.11,7.11,0,0,1,2.75,2.87,8.85,8.85,0,0,1,1,4.22v.78a8.86,8.86,0,0,1-1,4.21,6.91,6.91,0,0,1-2.74,2.85,8,8,0,0,1-4,1ZM123,125v11.32h1.69a3.76,3.76,0,0,0,3.13-1.34,6,6,0,0,0,1.11-3.83v-.9a6.19,6.19,0,0,0-1.07-3.92,3.79,3.79,0,0,0-3.14-1.33Z"/><path class="cls-1" d="M147.64,131.82h-6.71v4.54h7.87v2.81H137.43v-17h11.35V125h-7.85v4h6.71Z"/><path class="cls-1" d="M161.57,139.17v-17h5.22a8,8,0,0,1,4,1,7.07,7.07,0,0,1,2.76,2.87,8.85,8.85,0,0,1,1,4.22v.78a9,9,0,0,1-1,4.21,6.93,6.93,0,0,1-2.75,2.85,8,8,0,0,1-4,1ZM165.06,125v11.32h1.69a3.78,3.78,0,0,0,3.14-1.34,6.08,6.08,0,0,0,1.11-3.83v-.9a6.13,6.13,0,0,0-1.08-3.92,3.77,3.77,0,0,0-3.13-1.33Z"/><path class="cls-1" d="M183.18,139.17h-3.49v-17h3.49Z"/><path class="cls-1" d="M197.61,134.72a1.81,1.81,0,0,0-.7-1.52,9.31,9.31,0,0,0-2.52-1.12,17.9,17.9,0,0,1-2.88-1.16q-2.89-1.56-2.89-4.21a4.09,4.09,0,0,1,.78-2.45,4.94,4.94,0,0,1,2.22-1.68,8.27,8.27,0,0,1,3.26-.61,7.62,7.62,0,0,1,3.24.66,5.19,5.19,0,0,1,2.21,1.86,4.9,4.9,0,0,1,.78,2.73h-3.49a2.3,2.3,0,0,0-.74-1.82,3,3,0,0,0-2.06-.64,3.23,3.23,0,0,0-2,.54,1.7,1.7,0,0,0-.71,1.43,1.61,1.61,0,0,0,.83,1.38,8.87,8.87,0,0,0,2.45,1,10.58,10.58,0,0,1,4.35,2.23,4.4,4.4,0,0,1,1.36,3.31,4.07,4.07,0,0,1-1.66,3.45A7.29,7.29,0,0,1,195,139.4a8.66,8.66,0,0,1-3.57-.71,5.59,5.59,0,0,1-2.45-2,5,5,0,0,1-.84-2.89h3.5c0,1.88,1.12,2.81,3.36,2.81a3.35,3.35,0,0,0,1.95-.5A1.67,1.67,0,0,0,197.61,134.72Z"/><path class="cls-1" d="M216.07,131.82h-6.71v4.54h7.88v2.81H205.86v-17h11.35V125h-7.85v4h6.71Z"/><path class="cls-1" d="M235.47,139.17H232L225.17,128v11.16h-3.5v-17h3.5L232,133.39V122.2h3.48ZM233,117.82a3.27,3.27,0,0,1-.77,2.21,2.37,2.37,0,0,1-1.88.89,2.68,2.68,0,0,1-.78-.1,4.53,4.53,0,0,1-.95-.42,5,5,0,0,0-.88-.4,2.08,2.08,0,0,0-.58-.08.94.94,0,0,0-.69.29,1.15,1.15,0,0,0-.29.83l-2-.12a3.32,3.32,0,0,1,.77-2.2,2.4,2.4,0,0,1,2.53-.82,8,8,0,0,1,1,.42,5.61,5.61,0,0,0,1,.41,2.1,2.1,0,0,0,.56.07,1,1,0,0,0,.71-.28,1.12,1.12,0,0,0,.29-.82Z"/><path class="cls-1" d="M254.85,131.07a10.21,10.21,0,0,1-.89,4.39,6.64,6.64,0,0,1-2.53,2.92,7.53,7.53,0,0,1-7.55,0,6.71,6.71,0,0,1-2.56-2.9,9.89,9.89,0,0,1-.92-4.33v-.83a10.22,10.22,0,0,1,.9-4.41,6.72,6.72,0,0,1,2.55-2.93,7.48,7.48,0,0,1,7.54,0,6.72,6.72,0,0,1,2.55,2.93,10,10,0,0,1,.91,4.39Zm-3.55-.77a7.17,7.17,0,0,0-1-4.05,3.37,3.37,0,0,0-5.44,0,7.05,7.05,0,0,0-1,4v.82a7.28,7.28,0,0,0,.95,4,3.35,3.35,0,0,0,5.46.06,7.14,7.14,0,0,0,1-4Z"/></g></g></svg>